HIERARCHY
ROOT Hips
{
  OFFSET -33.9132 29.2015 117.021
  CHANNELS 6 Xposition Yposition Zposition Zrotation Xrotation Yrotation
  JOINT LeftUpLeg
  {
    OFFSET 8.64259 1.95398 -2.38835
    CHANNELS 3 Zrotation Xrotation Yrotation
    JOINT LeftLeg
    {
      OFFSET 43.7702 0 0
      CHANNELS 3 Zrotation Xrotation Yrotation
      JOINT LeftFoot
      {
        OFFSET 40.6238 0 0
        CHANNELS 3 Zrotation Xrotation Yrotation
        JOINT LeftToeBase
        {
          OFFSET 12.7242 0 0
          CHANNELS 3 Zrotation Xrotation Yrotation
          End Site
          {
            OFFSET 0 0 0
          }
        }
      }
    }
  }
  JOINT RightUpLeg
  {
    OFFSET -8.2249 1.95398 -2.59336
    CHANNELS 3 Zrotation Xrotation Yrotation
    JOINT RightLeg
    {
      OFFSET 43.5653 0 0
      CHANNELS 3 Zrotation Xrotation Yrotation
      JOINT RightFoot
      {
        OFFSET 40.6238 0 0
        CHANNELS 3 Zrotation Xrotation Yrotation
        JOINT RightToeBase
        {
          OFFSET 12.7242 0 0
          CHANNELS 3 Zrotation Xrotation Yrotation
          End Site
          {
            OFFSET 0 0 0
          }
        }
      }
    }
  }
  JOINT Spine
  {
    OFFSET 0.165834 0.87714 6.61349
    CHANNELS 3 Zrotation Xrotation Yrotation
    JOINT Spine1
    {
      OFFSET 7.38963 1.71661e-005 0
      CHANNELS 3 Zrotation Xrotation Yrotation
      JOINT Spine2
      {
        OFFSET 11.9445 1.14441e-005 0
        CHANNELS 3 Zrotation Xrotation Yrotation
        JOINT Spine3
        {
          OFFSET 14.7254 4.19617e-005 0
          CHANNELS 3 Zrotation Xrotation Yrotation
          JOINT Spine4
          {
            OFFSET 10.9679 0 0
            CHANNELS 3 Zrotation Xrotation Yrotation
            JOINT RightShoulder
            {
              OFFSET 2.46616 -1.6653 3.69651
              CHANNELS 3 Zrotation Xrotation Yrotation
              JOINT RightArm
              {
                OFFSET 13.0012 0 0
                CHANNELS 3 Zrotation Xrotation Yrotation
                JOINT RightForeArm
                {
                  OFFSET 28.7848 1.62311e-005 0
                  CHANNELS 3 Zrotation Xrotation Yrotation
                  JOINT RightHand
                  {
                    OFFSET 26.5688 1.62095e-005 0
                    CHANNELS 3 Zrotation Xrotation Yrotation
                    End Site
                    {
                      OFFSET 0 0 0
                    }
                  }
                }
              }
            }
            JOINT LeftShoulder
            {
              OFFSET 2.38034 -1.29275 -3.7523
              CHANNELS 3 Zrotation Xrotation Yrotation
              JOINT LeftArm
              {
                OFFSET 16.3182 6.07031e-005 0
                CHANNELS 3 Zrotation Xrotation Yrotation
                JOINT LeftForeArm
                {
                  OFFSET 27.0901 0 0
                  CHANNELS 3 Zrotation Xrotation Yrotation
                  JOINT LeftHand
                  {
                    OFFSET 24.5451 1.51738e-005 0
                    CHANNELS 3 Zrotation Xrotation Yrotation
                    End Site
                    {
                      OFFSET 0 0 0
                    }
                  }
                }
              }
            }
            JOINT Neck
            {
              OFFSET 5.0226 -0.0266342 0
              CHANNELS 3 Zrotation Xrotation Yrotation
              JOINT Head
              {
                OFFSET 6.69364 2.86102e-005 0
                CHANNELS 3 Zrotation Xrotation Yrotation
                End Site
                {
                  OFFSET 0 0 0
                }
              }
            }
          }
        }
      }
    }
  }
}
MOTION
Frames:	15
Frame Time:	0.0416667
221.53 103.353 -224.664 -98.8654 -50.4373 -97.6467 -175.88 -2.43073 87.7053 -10.9321 7.23307 0.94729 70.4682 5.38917 -3.86793 12.793 -11.7695 6.32518 172.735 -5.46337 89.2017 -8.80701 -5.52238 0.525722 66.9182 -4.90635 -0.727443 23.1783 1.14582 4.78674 0.497146 7.5831 -90.0371 11.7088 0.971484 -0.175792 0.0381955 0.962822 -0.218391 -22.4999 0.979393 0.124341 -2.48721 0.979409 0.124329 90.5278 -28.4516 -106.294 51.6894 2.69255 -9.04618 -5.09061 -38.801 -5.33161 -13.3684 1.1334 -15.4536 -88.8156 -48.0569 80.1143 -28.8426 -10.0339 -18.1247 -11.088 22.275 -0.0184196 1.06051 -0.213814 -20.9939 6.58 4.07183 -0.695216 -9.62217 4.14919 -0.0919513 
221.544 103.366 -224.707 -98.5171 -50.3848 -97.2264 -175.737 -2.05722 87.965 -11.1981 7.67523 0.837713 70.4011 5.31728 -3.92862 12.9491 -11.6427 6.27907 172.87 -5.1158 89.4004 -9.03731 -5.02411 0.561924 66.8771 -4.71589 -0.179262 23.2057 1.25118 4.39645 0.474992 7.51247 -90.0536 11.8501 0.919459 -0.205068 0.17947 0.909524 -0.245335 -22.3583 0.938571 0.0807731 -2.34564 0.938577 0.0807776 90.3413 -28.4345 -106.68 52.1889 2.67959 -8.40375 -4.97847 -36.964 -5.27272 -15.8494 1.1774 -14.0735 -88.6778 -48.0088 80.3157 -28.7358 -10.3303 -17.4185 -11.0769 22.1351 -0.0184012 1.83231 -0.297314 -20.6176 4.90347 4.63501 -0.516527 -7.37874 4.69367 -0.818929 
221.46 103.307 -224.725 -98.8159 -50.4126 -97.3963 -175.783 -1.72946 88.0573 -12.3719 11.7805 0.909015 69.5128 5.50167 -0.302225 15.5454 -11.0586 7.84206 172.939 -6.04247 89.5277 -7.92046 -5.30842 0.572537 66.8753 -5.13724 -0.833545 22.7547 1.33902 4.7356 0.47099 7.52702 -90.0482 11.8209 0.914029 -0.193368 0.150269 0.904619 -0.233415 -22.3875 0.929879 0.0902986 -2.37481 0.929886 0.0902995 90.5058 -28.8698 -106.179 51.9599 2.74304 -8.53256 -5.04397 -38.0498 -5.30674 -14.8815 1.19055 -14.8006 -88.6259 -48.0241 80.3983 -28.6009 -9.72196 -17.452 -11.3058 21.5393 -0.0183247 2.53899 -0.322951 -18.0857 5.0123 4.44016 -0.781602 -7.56317 4.54809 -0.743311 
221.494 103.333 -224.772 -98.7775 -50.3098 -97.6127 -175.956 -1.94712 87.7576 -11.8734 11.0408 0.970331 69.4328 5.45581 -0.720163 15.0743 -11.0685 7.39947 172.734 -5.39931 89.2202 -8.83981 -5.48945 0.591793 66.9959 -4.95808 -0.696713 23.0569 1.24871 4.61442 0.472706 7.53716 -90.0391 11.8006 0.921907 -0.175781 0.129958 0.913272 -0.216185 -22.4078 0.932089 0.109431 -2.39516 0.932108 0.109445 90.6744 -28.7813 -105.871 51.8065 2.77451 -8.651 -5.08442 -38.7022 -5.32826 -14.0659 1.14826 -15.0321 -88.6945 -48.3036 80.3491 -28.5263 -9.34358 -17.3977 -11.4154 21.4656 -0.0183154 -0.378778 0.0540476 -19.1737 5.44162 4.53974 -0.472304 -7.83598 4.5955 -0.847769 
221.374 103.32 -224.827 -99.0094 -50.2681 -97.6131 -175.612 -2.03896 88.1442 -11.9902 12.0749 0.718879 69.3192 5.59684 0.2205 15.6464 -10.8934 7.67673 172.92 -6.05307 89.5031 -8.1037 -5.69905 0.552356 66.8293 -5.09448 -1.14141 22.8488 1.21713 5.00619 0.476817 7.54742 -90.0517 11.7802 0.924034 -0.200959 0.109513 0.914283 -0.241437 -22.4283 0.941696 0.0860609 -2.41563 0.941693 0.0860611 90.8264 -28.4448 -105.689 52.5192 2.46609 -8.5637 -5.04291 -38.0312 -5.30612 -15.8319 1.17848 -14.1026 -88.5774 -48.1434 80.4962 -28.7909 -9.46543 -17.4537 -11.3293 21.1635 -0.0182778 0.838112 -0.128697 -18.8326 5.55509 4.43356 -0.689305 -8.24958 4.52448 -0.614135 
221.381 103.333 -224.894 -99.0865 -50.3045 -97.7653 -175.634 -2.12124 88.1628 -11.7418 11.4981 0.733626 69.1072 5.17007 -1.34747 16.6887 -10.7364 8.45823 172.808 -5.92301 89.4013 -8.30855 -5.35552 0.613536 66.9103 -5.09922 -0.775648 22.9559 1.24841 4.75468 0.472257 7.55978 -90.0673 11.7555 0.907679 -0.229923 0.084887 0.896687 -0.26966 -22.4528 0.934828 0.053525 -2.44017 0.934817 0.0535213 91.0754 -28.1243 -105.301 52.616 2.40356 -8.60945 -5.05329 -38.1976 -5.31164 -15.4571 1.19259 -14.437 -88.7497 -48.6717 80.3384 -28.3485 -10.1699 -17.5198 -11.1399 21.9239 -0.0183738 1.89453 -0.292949 -19.6641 5.60605 4.48547 -0.257341 -8.08065 4.50328 -0.834884 
221.385 103.342 -224.961 -98.9383 -50.172 -97.824 -175.708 -2.121 87.9489 -11.5751 11.65 0.693561 68.9668 5.30611 -0.529455 16.279 -10.6334 7.8855 172.641 -5.47763 89.1845 -8.72498 -5.9271 0.640616 66.8705 -5.01379 -0.939305 23.2522 1.11771 4.77585 0.493184 7.562 -90.0525 11.7511 0.956282 -0.205498 0.080512 0.946308 -0.247399 -22.4575 0.973834 0.0914337 -2.44482 0.973824 0.0914286 91.055 -28.1581 -105.33 52.5706 2.43716 -8.57659 -5.05709 -38.262 -5.31363 -15.521 1.23357 -14.7086 -88.6924 -48.45 80.3814 -28.8171 -10.6428 -17.6498 -10.7348 22.474 -0.0184459 2.72219 -0.315663 -17.2918 5.63781 4.51507 -0.230309 -7.79274 4.52695 -0.883626 
221.294 103.319 -225.068 -98.7246 -50.0839 -97.724 -175.683 -1.94749 87.9748 -11.6571 11.5755 0.651585 69.1181 5.35105 -0.632591 15.9267 -10.9333 8.01827 172.818 -5.12327 89.2966 -9.13921 -5.66969 0.507808 67.2041 -5.07988 -0.642149 22.7365 1.36167 4.6855 0.488396 7.53985 -90.0299 11.7952 0.957385 -0.16107 0.124584 0.949374 -0.203065 -22.4134 0.961533 0.134132 -2.40073 0.961527 0.134137 90.7004 -28.704 -105.848 52.0027 2.74157 -8.47828 -5.00313 -37.3738 -5.28536 -14.3463 1.20949 -15.3449 -88.6034 -48.5303 80.533 -28.6484 -10.3385 -17.32 -10.9215 22.2067 -0.0184106 5.09636 -0.508977 -15.3461 5.46467 4.70615 -0.166305 -7.55896 4.69665 -0.772204 
221.214 103.349 -225.126 -99.2014 -50.1608 -97.9469 -175.72 -2.17394 88.0942 -11.9224 11.2092 0.88951 69.5234 5.63903 -0.562532 14.7317 -11.0925 7.10477 172.836 -5.99051 89.4509 -8.67693 -5.60897 0.628104 67.3449 -5.27644 -0.866921 22.5508 1.61484 4.11591 0.487749 7.59785 -90.0613 11.6794 0.941492 -0.220554 0.00880553 0.930836 -0.261785 -22.5291 0.96424 0.0726292 -2.51645 0.964233 0.0726139 90.7577 -28.4937 -105.811 52.1903 2.61534 -8.58434 -5.00136 -37.3479 -5.28443 -14.8757 1.23726 -15.1778 -88.5507 -48.4745 80.6025 -29.1913 -10.373 -17.7383 -10.8306 22.9447 -0.0185095 0.368553 -0.0127949 -18.5155 5.80433 4.59715 -0.101916 -7.77344 4.58021 -0.834085 
221.083 103.356 -225.194 -99.3134 -50.1137 -98.0375 -175.48 -2.35627 88.3423 -11.6862 11.6406 0.674462 69.2958 5.55173 -0.665905 15.5755 -10.862 7.55611 172.835 -5.93466 89.5026 -8.87702 -5.55526 0.663832 67.4072 -5.39003 -0.804945 22.4731 1.52779 4.50521 0.494432 7.59421 -90.0604 11.6845 0.955169 -0.220275 0.0138395 0.944549 -0.262102 -22.5241 0.977219 0.0770144 -2.51148 0.977189 0.0770026 90.7951 -28.4329 -105.758 52.5069 2.46117 -8.59386 -4.92122 -35.9937 -5.2437 -15.0997 1.36212 -15.9805 -88.67 -48.7498 80.4748 -28.3476 -10.1918 -17.7854 -11.0695 22.1464 -0.0184027 1.60468 -0.183139 -17.9608 5.33995 4.50881 -0.26891 -7.52133 4.51609 -0.635358 
220.888 103.307 -225.237 -99.3215 -50.5185 -98.1333 -175.133 -2.1431 88.6529 -12.0024 12.3908 0.322761 69.5271 5.67144 -0.708362 15.4213 -11.0098 7.64301 172.676 -5.8389 89.5255 -8.98533 -5.40052 0.854706 67.5132 -5.68949 -1.06424 22.441 1.50394 4.62679 0.442685 7.58949 -90.0763 11.6894 0.844723 -0.240621 0.0186605 0.833314 -0.277573 -22.5187 0.877981 0.0244011 -2.50605 0.877988 0.0243963 90.8944 -28.3474 -105.588 52.2768 2.54809 -8.6579 -5.03256 -37.8617 -5.30083 -14.6123 1.14889 -14.6679 -88.7839 -49.3175 80.4146 -27.668 -10.0216 -17.9394 -11.2976 21.4885 -0.0183183 1.65783 -0.210297 -18.3448 5.19413 4.51963 0.105818 -7.3616 4.45667 -0.612192 
220.628 103.255 -225.317 -99.5481 -50.4314 -98.1548 -174.894 -2.05466 89.0528 -12.6372 12.4053 0.280982 69.8403 5.74517 -0.937473 15.7919 -10.6588 7.43979 172.744 -5.79554 89.8394 -9.39832 -5.69043 0.931076 67.4356 -5.99865 -1.72821 23.146 1.20591 4.63168 0.495002 7.59392 -90.0902 11.6877 0.942232 -0.278439 0.0170793 0.929058 -0.319649 -22.5208 0.982337 0.0176373 -2.50817 0.98236 0.0176336 91.2424 -28.5768 -104.793 52.4335 2.45623 -8.70598 -5.03864 -37.9604 -5.304 -14.7054 1.11947 -14.3541 -89.0469 -48.9158 79.9358 -27.8319 -9.96961 -17.9974 -11.323 20.9338 -0.0182496 0.597395 -0.11494 -19.9514 4.98097 4.23979 -0.490392 -7.18121 4.25728 0.215981 
220.14 103.249 -225.415 -100.073 -50.6841 -98.6129 -174.756 -2.37411 89.3705 -12.7635 12.8092 0.334649 69.9125 5.79039 -1.24052 16.6176 -10.8765 8.61688 172.744 -6.32127 90.0036 -9.37692 -5.3233 1.02048 67.6793 -6.10652 -1.5743 23.0098 1.3812 4.24112 0.454222 7.64915 -90.0888 11.5769 0.862062 -0.265816 -0.0938306 0.849525 -0.303505 -22.6313 0.902088 0.00557547 -2.61864 0.902097 0.00558136 91.1062 -28.562 -105.076 52.5417 2.3186 -8.94576 -4.92265 -36.0158 -5.24466 -14.8477 1.25615 -15.3479 -88.8547 -49.2756 80.2991 -26.898 -10.1296 -18.138 -11.2985 21.5649 -0.018328 1.54031 -0.193511 -18.3864 5.51664 4.59939 0.222577 -7.46185 4.50562 -0.476427 
219.747 103.201 -225.568 -99.6742 -51.0696 -98.7673 -174.639 -2.40402 89.3395 -12.1673 13.6564 0.0331178 69.5505 5.87387 -0.447364 16.6325 -10.1309 7.40778 172.713 -5.48513 89.9478 -10.8129 -4.72251 0.980665 68.6772 -6.56266 -1.38926 22.6422 1.6408 3.90422 0.422552 7.61457 -90.0359 11.6455 0.82376 -0.157196 -0.0251535 0.816056 -0.193309 -22.5624 0.83291 0.0976653 -2.54976 0.832928 0.0976644 91.1826 -28.4901 -104.946 52.752 2.38608 -8.47762 -5.02322 -37.7075 -5.29588 -15.3783 1.14865 -14.1497 -88.9132 -49.3624 80.2285 -26.4734 -10.8703 -17.7302 -11.043 21.3106 -0.018296 5.24521 -0.614851 -16.6973 5.66001 4.61851 0.326422 -7.30674 4.50014 -0.407436 
218.943 103.063 -225.834 -99.199 -51.3142 -98.4619 -174.522 -1.75609 89.7628 -13.1649 13.5153 0.140898 70.3816 6.15724 -0.88182 16.4379 -10.1584 7.25907 173.03 -5.15479 90.5437 -11.2673 -5.0012 1.07314 68.8203 -7.23048 -2.65627 23.2116 1.41159 3.85652 0.508134 7.66722 -90.027 11.541 0.998306 -0.155206 -0.129609 0.990508 -0.199002 -22.6678 0.998798 0.152033 -2.65519 0.998795 0.152022 91.4572 -28.7199 -104.308 52.6533 2.39028 -8.59847 -5.01701 -37.6061 -5.29258 -15.7151 1.19511 -14.3011 -89.446 -49.5055 79.4519 -25.3608 -11.7795 -18.1865 -10.636 21.6982 -0.0183449 3.23695 -0.349625 -16.827 5.993 4.23157 0.633499 -6.47605 4.06634 -0.72144 
